<?xml version="1.0" encoding="utf-8"?>
<!-- Generator: Adobe Illustrator 23.0.4, SVG Export Plug-In . SVG Version: 6.00 Build 0)  -->
<svg version="1.1" id="Layer_1" xmlns="http://www.w3.org/2000/svg" xmlns:xlink="http://www.w3.org/1999/xlink" x="0px" y="0px"
	 viewBox="0 0 64 64" style="enable-background:new 0 0 64 64;" xml:space="preserve">
<style type="text/css">
	.st0{enable-background:new    ;}
	.st1{fill:#FFFFFF;}
</style>
<g id="CIRCLE__x2F__DELETE_1_" class="st0">
	<g id="CIRCLE__x2F__DELETE">
		<g>
			<path class="st1" d="M32,0C14.3,0,0,14.3,0,32s14.3,32,32,32s32-14.3,32-32S49.7,0,32,0z M32,58C17.6,58,6,46.4,6,32S17.6,6,32,6
				s26,11.6,26,26S46.4,58,32,58z M46,21c0-1.7-1.3-3-3-3c-0.8,0-1.6,0.3-2.1,0.9L32,27.8l-8.9-8.9C22.6,18.3,21.8,18,21,18
				c-1.7,0-3,1.3-3,3c0,0.8,0.3,1.6,0.9,2.1l8.9,8.9l-8.9,8.9C18.3,41.4,18,42.2,18,43c0,1.7,1.3,3,3,3c0.8,0,1.6-0.3,2.1-0.9
				l8.9-8.9l8.9,8.9c0.5,0.5,1.3,0.9,2.1,0.9c1.7,0,3-1.3,3-3c0-0.8-0.3-1.6-0.9-2.1L36.2,32l8.9-8.9C45.7,22.6,46,21.8,46,21z"/>
		</g>
	</g>
</g>
</svg>
