<?xml version="1.0" encoding="utf-8"?>
<!-- Generator: Adobe Illustrator 22.1.0, SVG Export Plug-In . SVG Version: 6.00 Build 0)  -->
<svg version="1.1" id="Layer_1" xmlns="http://www.w3.org/2000/svg" xmlns:xlink="http://www.w3.org/1999/xlink" x="0px" y="0px"
	 viewBox="0 0 512 512" style="enable-background:new 0 0 512 512;" xml:space="preserve">
<style type="text/css">
	.st0{fill:#3F3F3F;}
	.st1{fill:#E1E6E9;}
	.st2{fill:#E6E9EF;}
</style>
<circle class="st0" cx="256" cy="256" r="256"/>
<path class="st1" d="M361.7,100c-0.9-24.8-33.1-43.8-71.9-42.3c-19.1,0.7-36.2,6.3-48.6,14.6c-19.5,10.1-33,46.7-31.4,89.6
	c1.9,50.1,23.5,90,48.3,89.1c9.5-0.4,17.7-15,24.2-33.1c12.5-34.8,34.9-64.9,63.6-88.1C356.2,121.5,362.1,111.1,361.7,100z"/>
<path class="st1" d="M150.4,414.9c2,24.7,35,42.3,73.7,39.1c19.1-1.5,35.9-7.8,47.9-16.8c19.1-11,30.9-48,27.4-90.9
	c-4.1-50-27.4-88.9-52.2-86.9c-9.4,0.8-17,15.7-22.7,34.2c-11,35.3-32,66.3-59.7,90.8C154.9,393.1,149.5,403.8,150.4,414.9z"/>
<path class="st1" d="M412,361.7c24.8-0.9,43.8-33.1,42.3-71.9c-0.7-19.1-6.3-36.2-14.6-48.6c-10.1-19.5-46.7-33-89.6-31.4
	c-50.1,1.9-90,23.5-89.1,48.3c0.4,9.5,15,17.7,33.1,24.2c34.8,12.5,64.9,34.9,88.1,63.6C390.5,356.2,400.9,362.1,412,361.7z"/>
<path class="st1" d="M97.1,150.4c-24.7,2-42.3,35-39.1,73.7c1.5,19.1,7.8,35.9,16.8,47.9c11,19.1,48,30.9,90.9,27.4
	c50-4.1,88.9-27.4,86.9-52.2c-0.8-9.4-15.7-17-34.2-22.7c-35.3-11-66.3-32-90.8-59.7C118.9,154.9,108.2,149.5,97.1,150.4z"/>
<circle class="st0" cx="258.9" cy="259.4" r="49.1"/>
<circle class="st2" cx="258.9" cy="259.4" r="26.9"/>
</svg>
