<?xml version="1.0" encoding="utf-8"?>
<!-- Generator: Adobe Illustrator 23.0.4, SVG Export Plug-In . SVG Version: 6.00 Build 0)  -->
<svg version="1.1" id="Capa_1" xmlns="http://www.w3.org/2000/svg" xmlns:xlink="http://www.w3.org/1999/xlink" x="0px" y="0px"
	 viewBox="0 0 298.7 298.7" style="enable-background:new 0 0 298.7 298.7;" xml:space="preserve">
<style type="text/css">
	.st0{fill:#3F3F3F;}
	.st1{fill:#005577;}
</style>
<path class="st0" d="M162.5,137.1c7.7-7.1,39.3-38.2,36.8-69.4c-2.1-26.5-32.6-34.4-49.6-34.4c-17,0-47.5,8-49.5,34.4
	c-2.4,30.6,27.9,61,36.4,68.9c3.3-3.2,7.8-5.3,12.7-5.3C154.5,131.3,159.2,133.5,162.5,137.1z"/>
<path class="st0" d="M131.3,149.3c0-3,0.8-5.9,2.1-8.4c-11.2-3.4-52.6-14.3-77.8,3c-21.9,15-13.5,45.5-5,60.2
	c8.5,14.7,30.6,37.1,54.6,25.7c25.5-12.2,37-48.3,40.7-62.8C137.6,165.4,131.3,158.1,131.3,149.3z"/>
<path class="st1" d="M243.1,144.5c-25.1-17.2-66-6.5-77.6-3c1.2,2.4,1.8,5.1,1.8,7.9c0,8.8-6.3,16.1-14.7,17.7
	c3.5,14.1,15.1,50.9,40.9,63.3c23.9,11.5,46.1-11,54.6-25.7C256.6,189.9,265,159.5,243.1,144.5z"/>
<path class="st0" d="M149.3,0C67,0,0,67,0,149.3s67,149.3,149.3,149.3s149.3-67,149.3-149.3S231.7,0,149.3,0z M149.3,282.7
	C75.8,282.7,16,222.9,16,149.3S75.8,16,149.3,16s133.3,59.8,133.3,133.3S222.9,282.7,149.3,282.7z"/>
</svg>
