<?xml version="1.0" encoding="utf-8"?>
<!-- Generator: Adobe Illustrator 23.0.4, SVG Export Plug-In . SVG Version: 6.00 Build 0)  -->
<svg version="1.1" id="Layer_1" xmlns="http://www.w3.org/2000/svg" xmlns:xlink="http://www.w3.org/1999/xlink" x="0px" y="0px"
	 viewBox="0 0 512 512" style="enable-background:new 0 0 512 512;" xml:space="preserve">
<style type="text/css">
	.st0{fill:#FFFFFF;}
</style>
<path class="st0" d="M278.5,234.9c13.3-12.2,67.3-65.5,63.2-118.9c-3.5-45.4-55.9-59-85-59c-29.1,0-81.4,13.7-84.9,59
	c-4.1,52.4,47.8,104.6,62.4,118.2c5.6-5.6,13.3-9,21.8-9C264.9,225.1,272.9,228.9,278.5,234.9z"/>
<path class="st0" d="M225.1,256c0-5.2,1.3-10.1,3.5-14.3c-19.1-5.9-90.1-24.5-133.4,5.1c-37.5,25.7-23.1,77.9-8.6,103.1
	c14.5,25.2,52.5,63.6,93.6,44c43.7-20.9,63.5-82.9,69.8-107.7C235.8,283.5,225.1,271,225.1,256z"/>
<path class="st0" d="M416.7,247.7c-42.9-29.5-113.2-11.2-133-5.2c2,4.1,3.2,8.7,3.2,13.5c0,15.1-10.9,27.6-25.2,30.3
	c6.1,24.1,25.8,87.3,70.1,108.5c41,19.6,79.1-18.9,93.6-44.1C439.9,325.5,454.2,273.4,416.7,247.7z"/>
<path class="st0" d="M256,0C114.8,0,0,114.8,0,256s114.8,256,256,256s256-114.8,256-256S397.2,0,256,0z M256,484.6
	C130,484.6,27.4,382,27.4,256S130,27.4,256,27.4S484.6,130,484.6,256S382,484.6,256,484.6z"/>
</svg>
