<?xml version="1.0" encoding="utf-8"?>
<!-- Generator: Adobe Illustrator 23.0.4, SVG Export Plug-In . SVG Version: 6.00 Build 0)  -->
<svg version="1.1" id="Layer_1" xmlns="http://www.w3.org/2000/svg" xmlns:xlink="http://www.w3.org/1999/xlink" x="0px" y="0px"
	 viewBox="0 0 20 20" style="enable-background:new 0 0 20 20;" xml:space="preserve">
<style type="text/css">
	.st0{fill-rule:evenodd;clip-rule:evenodd;fill:#005577;}
	.st1{fill-rule:evenodd;clip-rule:evenodd;fill:#434343;}
</style>
<title>706</title>
<path class="st0" d="M19.6,2l-1.4-1.4c-0.1-0.1-0.4,0-0.6,0.2c-0.2,0.2-0.3,0.4-0.2,0.6l1.4,1.4c0.1,0.1,0.4,0,0.6-0.2
	C19.6,2.3,19.7,2.1,19.6,2L19.6,2z"/>
<rect x="7.3" y="9.3" transform="matrix(0.7071 -0.7071 0.7071 0.7071 -4.6066 8.4736)" class="st0" width="1.2" height="1"/>
<rect x="12.1" y="4.3" transform="matrix(0.7076 -0.7066 0.7066 0.7076 0.2399 10.4068)" class="st0" width="1.1" height="1.2"/>
<rect x="9.7" y="6.8" transform="matrix(0.7071 -0.7071 0.7071 0.7071 -2.1692 9.4381)" class="st0" width="1.2" height="1.1"/>
<path class="st1" d="M18.1,5.6l-1.3-1.2l1.3-1.3L17,2c0,0-1.3,1.3-2.9,2.9l-0.8,0.8c-0.5,0.5-1,1-1.6,1.6l-0.9,0.9
	c-0.5,0.5-1.1,1.1-1.6,1.6l-0.8,0.8c-0.8,0.8-1.5,1.5-1.9,1.9C4.9,14.1,1.4,15,0.4,14c0,0,0.5,1.6,2.2,3.4c1.7,1.7,3.4,2.2,3.4,2.2
	c-0.9-0.9,0-4.5,1.6-6.1C8,13.2,8.5,12.7,9.2,12l1.3,1.2c0.3,0.3,0.7,0.4,1.1,0.4c0.6,0,1.2-0.3,1.8-0.8l4.4-4.4
	c0.5-0.5,0.8-1.2,0.8-1.8C18.5,6.3,18.3,5.9,18.1,5.6z M17,7.8l-4.4,4.4c-0.5,0.5-1.2,0.6-1.4,0.4l-1.3-1.2c1.9-1.9,4.5-4.5,6.2-6.2
	l1.3,1.2c0.1,0.1,0.1,0.3,0.1,0.4C17.5,7,17.3,7.4,17,7.8z"/>
</svg>
