<?xml version="1.0" encoding="utf-8"?>
<!-- Generator: Adobe Illustrator 23.0.4, SVG Export Plug-In . SVG Version: 6.00 Build 0)  -->
<svg version="1.1" id="Layer_1" xmlns="http://www.w3.org/2000/svg" xmlns:xlink="http://www.w3.org/1999/xlink" x="0px" y="0px"
	 viewBox="0 0 40 40" style="enable-background:new 0 0 40 40;" xml:space="preserve">
<style type="text/css">
	.st0{fill:#3F3F3F;}
	.st1{fill:#005577;}
</style>
<g>
	<path class="st0" d="M7.7,1.6H1.6v6.1C5,7.7,7.7,5,7.7,1.6z"/>
	<path class="st0" d="M24.1,1.6H20C20,11.8,11.8,20,1.6,20v4.1C14,24.1,24.1,14,24.1,1.6z"/>
	<path class="st1" d="M15.9,1.6h-4.1c0,5.6-4.6,10.2-10.2,10.2v4.1C9.5,15.9,15.9,9.5,15.9,1.6z"/>
	<path class="st0" d="M15.9,38.4H20C20,28.2,28.2,20,38.4,20v-4.1C26,15.9,15.9,26,15.9,38.4z"/>
	<path class="st0" d="M32.3,38.4h6.1v-6.1C35,32.3,32.3,35,32.3,38.4z"/>
	<path class="st0" d="M24.1,38.4h4.1c0-5.6,4.6-10.2,10.2-10.2v-4.1C30.5,24.1,24.1,30.5,24.1,38.4z"/>
</g>
</svg>
